<mxfile host="app.diagrams.net" modified="2024-10-29T10:51:17.216Z" agent="Mozilla/5.0 (Windows NT 10.0; Win64; x64) AppleWebKit/537.36 (KHTML, like Gecko) Chrome/127.0.0.0 Safari/537.36 OPR/113.0.0.0 (Edition std-1)" etag="KOodZcRbg-U3DNfskeMu" version="21.8.2" type="github">
  <diagram name="Page-1" id="YEkNKsq60nOVMIqb-Fwg">
    <mxGraphModel dx="3123" dy="1348" grid="1" gridSize="10" guides="1" tooltips="1" connect="1" arrows="1" fold="1" page="1" pageScale="1" pageWidth="850" pageHeight="1100" math="0" shadow="0">
      <root>
        <mxCell id="0" />
        <mxCell id="1" parent="0" />
        <mxCell id="h-W_LRNafe9totRQrf_G-1" value="Date" style="swimlane;fontStyle=0;childLayout=stackLayout;horizontal=1;startSize=30;horizontalStack=0;resizeParent=1;resizeParentMax=0;resizeLast=0;collapsible=1;marginBottom=0;whiteSpace=wrap;html=1;" vertex="1" parent="1">
          <mxGeometry x="250" y="130" width="140" height="90" as="geometry" />
        </mxCell>
        <mxCell id="h-W_LRNafe9totRQrf_G-2" value="Matrice Corelatie" style="text;strokeColor=none;fillColor=none;align=left;verticalAlign=middle;spacingLeft=4;spacingRight=4;overflow=hidden;points=[[0,0.5],[1,0.5]];portConstraint=eastwest;rotatable=0;whiteSpace=wrap;html=1;" vertex="1" parent="h-W_LRNafe9totRQrf_G-1">
          <mxGeometry y="30" width="140" height="30" as="geometry" />
        </mxCell>
        <mxCell id="h-W_LRNafe9totRQrf_G-3" value="Metadata" style="text;strokeColor=none;fillColor=none;align=left;verticalAlign=middle;spacingLeft=4;spacingRight=4;overflow=hidden;points=[[0,0.5],[1,0.5]];portConstraint=eastwest;rotatable=0;whiteSpace=wrap;html=1;" vertex="1" parent="h-W_LRNafe9totRQrf_G-1">
          <mxGeometry y="60" width="140" height="30" as="geometry" />
        </mxCell>
        <mxCell id="h-W_LRNafe9totRQrf_G-5" value="" style="rounded=0;whiteSpace=wrap;html=1;" vertex="1" parent="1">
          <mxGeometry x="375" y="420" width="170" height="100" as="geometry" />
        </mxCell>
        <mxCell id="h-W_LRNafe9totRQrf_G-6" value="&lt;span style=&quot;font-size: 14px;&quot;&gt;Extragere Caracteristici Relevate&lt;/span&gt;" style="text;html=1;strokeColor=none;fillColor=none;align=center;verticalAlign=middle;whiteSpace=wrap;rounded=0;" vertex="1" parent="1">
          <mxGeometry x="385" y="430" width="150" height="80" as="geometry" />
        </mxCell>
        <mxCell id="h-W_LRNafe9totRQrf_G-15" value="" style="edgeStyle=orthogonalEdgeStyle;sourcePerimeterSpacing=0;targetPerimeterSpacing=0;startArrow=none;endArrow=none;rounded=0;targetPortConstraint=eastwest;sourcePortConstraint=northsouth;curved=0;rounded=0;exitX=0.494;exitY=1.006;exitDx=0;exitDy=0;exitPerimeter=0;" edge="1" target="h-W_LRNafe9totRQrf_G-17" parent="1" source="h-W_LRNafe9totRQrf_G-3">
          <mxGeometry relative="1" as="geometry">
            <mxPoint x="300" y="240" as="sourcePoint" />
          </mxGeometry>
        </mxCell>
        <mxCell id="h-W_LRNafe9totRQrf_G-16" value="" style="edgeStyle=orthogonalEdgeStyle;sourcePerimeterSpacing=0;targetPerimeterSpacing=0;startArrow=none;endArrow=none;rounded=0;targetPortConstraint=eastwest;sourcePortConstraint=northsouth;curved=0;rounded=0;" edge="1" target="h-W_LRNafe9totRQrf_G-18" parent="1">
          <mxGeometry relative="1" as="geometry">
            <mxPoint x="320" y="220" as="sourcePoint" />
          </mxGeometry>
        </mxCell>
        <mxCell id="h-W_LRNafe9totRQrf_G-17" value="Date Testare" style="whiteSpace=wrap;html=1;align=center;verticalAlign=middle;treeFolding=1;treeMoving=1;" vertex="1" parent="1">
          <mxGeometry x="150" y="320" width="100" height="60" as="geometry" />
        </mxCell>
        <mxCell id="h-W_LRNafe9totRQrf_G-18" value="Date Antrenare" style="whiteSpace=wrap;html=1;align=center;verticalAlign=middle;treeFolding=1;treeMoving=1;" vertex="1" parent="1">
          <mxGeometry x="410" y="320" width="100" height="60" as="geometry" />
        </mxCell>
        <mxCell id="h-W_LRNafe9totRQrf_G-19" value="" style="endArrow=none;html=1;rounded=0;exitX=0.5;exitY=1;exitDx=0;exitDy=0;entryX=0.5;entryY=0;entryDx=0;entryDy=0;" edge="1" parent="1" source="h-W_LRNafe9totRQrf_G-18" target="h-W_LRNafe9totRQrf_G-5">
          <mxGeometry width="50" height="50" relative="1" as="geometry">
            <mxPoint x="670" y="375" as="sourcePoint" />
            <mxPoint x="720" y="325" as="targetPoint" />
          </mxGeometry>
        </mxCell>
        <mxCell id="h-W_LRNafe9totRQrf_G-20" value="" style="rounded=0;whiteSpace=wrap;html=1;" vertex="1" parent="1">
          <mxGeometry x="372.5" y="560" width="175" height="100" as="geometry" />
        </mxCell>
        <mxCell id="h-W_LRNafe9totRQrf_G-21" value="Selectia Modelului" style="text;html=1;strokeColor=none;fillColor=none;align=center;verticalAlign=middle;whiteSpace=wrap;rounded=0;" vertex="1" parent="1">
          <mxGeometry x="382.5" y="570" width="150" height="80" as="geometry" />
        </mxCell>
        <mxCell id="h-W_LRNafe9totRQrf_G-22" value="" style="endArrow=none;html=1;rounded=0;entryX=0.5;entryY=1;entryDx=0;entryDy=0;exitX=0.5;exitY=0;exitDx=0;exitDy=0;" edge="1" parent="1" source="h-W_LRNafe9totRQrf_G-20" target="h-W_LRNafe9totRQrf_G-5">
          <mxGeometry width="50" height="50" relative="1" as="geometry">
            <mxPoint x="260" y="570" as="sourcePoint" />
            <mxPoint x="310" y="520" as="targetPoint" />
          </mxGeometry>
        </mxCell>
        <mxCell id="h-W_LRNafe9totRQrf_G-23" value="" style="endArrow=none;html=1;rounded=0;entryX=0.5;entryY=1;entryDx=0;entryDy=0;" edge="1" parent="1" target="h-W_LRNafe9totRQrf_G-17">
          <mxGeometry width="50" height="50" relative="1" as="geometry">
            <mxPoint x="200" y="770" as="sourcePoint" />
            <mxPoint x="310" y="440" as="targetPoint" />
          </mxGeometry>
        </mxCell>
        <mxCell id="h-W_LRNafe9totRQrf_G-24" value="" style="endArrow=classic;html=1;rounded=0;entryX=0;entryY=0.5;entryDx=0;entryDy=0;" edge="1" parent="1" target="h-W_LRNafe9totRQrf_G-26">
          <mxGeometry relative="1" as="geometry">
            <mxPoint x="200" y="770" as="sourcePoint" />
            <mxPoint x="340" y="500" as="targetPoint" />
          </mxGeometry>
        </mxCell>
        <mxCell id="h-W_LRNafe9totRQrf_G-25" value="Verificare Date si&amp;nbsp;&lt;br&gt;Antrenare" style="edgeLabel;resizable=0;html=1;align=center;verticalAlign=middle;" connectable="0" vertex="1" parent="h-W_LRNafe9totRQrf_G-24">
          <mxGeometry relative="1" as="geometry" />
        </mxCell>
        <mxCell id="h-W_LRNafe9totRQrf_G-26" value="" style="rounded=0;whiteSpace=wrap;html=1;" vertex="1" parent="1">
          <mxGeometry x="372.5" y="720" width="177.5" height="100" as="geometry" />
        </mxCell>
        <mxCell id="h-W_LRNafe9totRQrf_G-27" value="Verificare&amp;nbsp;&lt;br&gt;si&lt;br&gt;Antrenare" style="text;html=1;strokeColor=none;fillColor=none;align=center;verticalAlign=middle;whiteSpace=wrap;rounded=0;" vertex="1" parent="1">
          <mxGeometry x="382.5" y="730" width="150" height="80" as="geometry" />
        </mxCell>
        <mxCell id="h-W_LRNafe9totRQrf_G-28" value="" style="endArrow=none;html=1;rounded=0;entryX=0.5;entryY=1;entryDx=0;entryDy=0;exitX=0.5;exitY=0;exitDx=0;exitDy=0;" edge="1" parent="1" source="h-W_LRNafe9totRQrf_G-26" target="h-W_LRNafe9totRQrf_G-20">
          <mxGeometry width="50" height="50" relative="1" as="geometry">
            <mxPoint x="260" y="600" as="sourcePoint" />
            <mxPoint x="310" y="550" as="targetPoint" />
          </mxGeometry>
        </mxCell>
        <mxCell id="h-W_LRNafe9totRQrf_G-29" value="" style="rounded=0;whiteSpace=wrap;html=1;" vertex="1" parent="1">
          <mxGeometry x="401.25" y="910" width="120" height="60" as="geometry" />
        </mxCell>
        <mxCell id="h-W_LRNafe9totRQrf_G-30" value="Model" style="text;html=1;strokeColor=none;fillColor=none;align=center;verticalAlign=middle;whiteSpace=wrap;rounded=0;" vertex="1" parent="1">
          <mxGeometry x="411.25" y="920" width="100" height="40" as="geometry" />
        </mxCell>
        <mxCell id="h-W_LRNafe9totRQrf_G-31" value="" style="endArrow=classic;html=1;rounded=0;exitX=0.5;exitY=1;exitDx=0;exitDy=0;entryX=0.5;entryY=0;entryDx=0;entryDy=0;" edge="1" parent="1" source="h-W_LRNafe9totRQrf_G-26" target="h-W_LRNafe9totRQrf_G-29">
          <mxGeometry width="50" height="50" relative="1" as="geometry">
            <mxPoint x="260" y="890" as="sourcePoint" />
            <mxPoint x="480" y="880" as="targetPoint" />
          </mxGeometry>
        </mxCell>
        <mxCell id="h-W_LRNafe9totRQrf_G-32" value="" style="rounded=0;whiteSpace=wrap;html=1;" vertex="1" parent="1">
          <mxGeometry x="220" y="910" width="120" height="60" as="geometry" />
        </mxCell>
        <mxCell id="h-W_LRNafe9totRQrf_G-33" value="Date WIDS" style="text;html=1;strokeColor=none;fillColor=none;align=center;verticalAlign=middle;whiteSpace=wrap;rounded=0;" vertex="1" parent="1">
          <mxGeometry x="220" y="910" width="120" height="60" as="geometry" />
        </mxCell>
        <mxCell id="h-W_LRNafe9totRQrf_G-34" value="" style="endArrow=classic;html=1;rounded=0;exitX=1;exitY=0.5;exitDx=0;exitDy=0;entryX=0;entryY=0.5;entryDx=0;entryDy=0;" edge="1" parent="1" source="h-W_LRNafe9totRQrf_G-33" target="h-W_LRNafe9totRQrf_G-29">
          <mxGeometry width="50" height="50" relative="1" as="geometry">
            <mxPoint x="410" y="960" as="sourcePoint" />
            <mxPoint x="460" y="910" as="targetPoint" />
          </mxGeometry>
        </mxCell>
        <mxCell id="h-W_LRNafe9totRQrf_G-35" value="" style="rounded=0;whiteSpace=wrap;html=1;" vertex="1" parent="1">
          <mxGeometry x="580" y="910" width="120" height="60" as="geometry" />
        </mxCell>
        <mxCell id="h-W_LRNafe9totRQrf_G-36" value="" style="endArrow=classic;html=1;rounded=0;exitX=1;exitY=0.5;exitDx=0;exitDy=0;entryX=0;entryY=0.5;entryDx=0;entryDy=0;" edge="1" parent="1" source="h-W_LRNafe9totRQrf_G-29" target="h-W_LRNafe9totRQrf_G-35">
          <mxGeometry width="50" height="50" relative="1" as="geometry">
            <mxPoint x="410" y="960" as="sourcePoint" />
            <mxPoint x="460" y="910" as="targetPoint" />
          </mxGeometry>
        </mxCell>
        <mxCell id="h-W_LRNafe9totRQrf_G-37" value="Predictie" style="text;html=1;strokeColor=none;fillColor=none;align=center;verticalAlign=middle;whiteSpace=wrap;rounded=0;" vertex="1" parent="1">
          <mxGeometry x="580" y="910" width="120" height="60" as="geometry" />
        </mxCell>
      </root>
    </mxGraphModel>
  </diagram>
</mxfile>
